HIERARCHY
ROOT root     
{
	OFFSET 0.0000 0.0000 0.0000
	CHANNELS 6 Xposition Yposition Zposition Zrotation Yrotation Xrotation
	JOINT pelvis   
	{
		OFFSET 0.0000 0.0000 0.0000
		CHANNELS 3 Zrotation Yrotation Xrotation
		JOINT thorax   
		{
			OFFSET 0.0000 23.0750 -5.0000
			CHANNELS 3 Zrotation Yrotation Xrotation
			JOINT rclavicle
			{
				OFFSET 0.0000 28.0009 0.0000
				CHANNELS 3 Zrotation Yrotation Xrotation
				JOINT rhumerus 
				{
					OFFSET -18.5725 5.5939 0.0000
					CHANNELS 3 Zrotation Yrotation Xrotation
					JOINT rradius  
					{
						OFFSET -24.8459 0.0000 0.0000
						CHANNELS 3 Zrotation Yrotation Xrotation
						JOINT rhand    
						{
							OFFSET -24.5477 0.0000 0.0000
							CHANNELS 3 Zrotation Yrotation Xrotation
							End Site
							{
								OFFSET -8.1826 0.0000 0.0000
							}
						}
					}
				}
			}
			JOINT lclavicle
			{
				OFFSET 0.0000 28.0009 0.0000
				CHANNELS 3 Zrotation Yrotation Xrotation
				JOINT lhumerus 
				{
					OFFSET 18.5725 5.5939 0.0000
					CHANNELS 3 Zrotation Yrotation Xrotation
					JOINT lradius  
					{
						OFFSET 24.8459 0.0000 0.0000
						CHANNELS 3 Zrotation Yrotation Xrotation
						JOINT lhand    
						{
							OFFSET 24.5477 0.0000 0.0000
							CHANNELS 3 Zrotation Yrotation Xrotation
							End Site
							{
								OFFSET 8.1826 0.0000 0.0000
							}
						}
					}
				}
			}
			JOINT head     
			{
				OFFSET 0.0000 35.2030 0.0000
				CHANNELS 3 Zrotation Yrotation Xrotation
				End Site
				{
					OFFSET 0.0000 11.7343 0.0000
				}
			}
		}
		JOINT rfemur   
		{
			OFFSET -8.2817 0.0000 0.0000
			CHANNELS 3 Zrotation Yrotation Xrotation
			JOINT rtibia   
			{
				OFFSET 0.0000 -43.3627 0.0000
				CHANNELS 3 Zrotation Yrotation Xrotation
				JOINT rfoot    
				{
					OFFSET 0.0000 -38.2947 0.0000
					CHANNELS 3 Zrotation Yrotation Xrotation
					JOINT rtoes    
					{
						OFFSET 0.0000 0.0000 16.6054
						CHANNELS 3 Zrotation Yrotation Xrotation
						End Site
						{
							OFFSET 0.0000 0.0000 5.5351
						}
					}
				}
			}
		}
		JOINT lfemur   
		{
			OFFSET 8.2817 0.0000 0.0000
			CHANNELS 3 Zrotation Yrotation Xrotation
			JOINT ltibia   
			{
				OFFSET 0.0000 -43.3627 0.0000
				CHANNELS 3 Zrotation Yrotation Xrotation
				JOINT lfoot    
				{
					OFFSET 0.0000 -38.2947 0.0000
					CHANNELS 3 Zrotation Yrotation Xrotation
					JOINT ltoes    
					{
						OFFSET 0.0000 0.0000 16.6054
						CHANNELS 3 Zrotation Yrotation Xrotation
						End Site
						{
							OFFSET 0.0000 0.0000 5.5351
						}
					}
				}
			}
		}
	}
}
MOTION
Frames: 11
Frame Time: .0333333
-116.17 71.386 -3.9535 -7.36215 85.6357 25.7783 0 -0 0 -13.2544 10.9846 14.1855 10.1451 -11.1015 -8.05243e-06 41.8143 0.893 23.6795 -180 70.7003 -180 2.26691 3.1436 0.0622001 -7.27083 21.527 3.31488e-05 -41.6349 39.3649 29.9881 180 -86.858 180 -10.3364 -0.571703 0.0517006 4.03338 -6.79303 -20.3193 -0.927784 -2.36331 -2.15106 -0 -0 31.1016 1.07189e-06 -5.97442 2.49221 -0.260695 -6.34493e-07 -73.9739 -10.0936 7.12692 -85.7428 -0 -0 62.0727 -4.74523e-07 9.84186 1.92627 0.334095 5.79444e-07 -22.0993 
-114.74 71.322 -3.9502 -7.2154 85.5847 25.8447 0 -0 0 -13.7362 10.8842 14.3761 10.578 -10.7401 3.59156e-06 42.8167 0.670792 23.4956 -180 71.1945 -180 2.28039 3.15206 0.0627994 -8.22573 21.1383 -2.81717e-05 -41.4405 38.0831 29.1938 180 -87.3719 -180 -9.87549 -0.425598 0.0368003 3.87736 -6.67882 -20.5106 -0.994208 -2.22438 -2.74682 -0 -0 33.5933 4.04972e-06 -6.52315 3.48768 -0.398494 -6.69329e-07 -71.588 -10.3223 7.40984 -85.379 -0 -0 63.4657 2.59975e-07 9.83408 0.776395 0.134599 8.68948e-08 -20.8493 
-113.33 71.288 -3.9565 -6.87914 85.5277 26.1087 0 -0 0 -14.2013 10.7116 14.5937 11.0377 -10.3534 4.60137e-07 43.8951 0.505357 23.3263 180 71.8693 180 2.28401 3.19114 0.0635996 -9.21138 20.7326 1.66857e-05 -41.3005 36.6703 28.305 180 -87.9978 180 -9.35463 -0.219704 0.0180001 3.67421 -6.51255 -20.6068 -1.04789 -2.1823 -3.57131 -0 -0 36.3761 -3.62483e-06 -7.31803 4.07923 -0.523404 5.4525e-06 -68.543 -10.5312 7.65763 -84.9119 -0 -0 64.7185 5.0244e-07 9.88394 -0.521099 -0.0908 -9.32145e-07 -19.8257 
-111.96 71.282 -3.971 -6.42298 85.4896 26.4985 0 -0 0 -14.6482 10.4628 14.8294 11.5093 -9.94695 -2.37955e-06 45.0635 0.388754 23.1677 180 72.7295 180 2.29767 3.26162 0.065403 -10.21 20.3121 -1.63414e-05 -41.2129 35.1351 27.3372 180 -88.6862 -180 -8.78603 0.0439003 -0.00340005 3.43133 -6.28871 -20.613 -1.08435 -2.24086 -4.61931 -0 -0 39.3941 -8.03172e-06 -8.34371 4.26305 -0.6246 -2.2916e-06 -64.9699 -10.7016 7.8604 -84.3629 -0 -0 65.8318 5.35939e-06 9.98424 -1.8892 -0.332498 8.41904e-08 -19.1189 
-110.61 71.308 -3.9921 -5.90323 85.4562 26.9758 0 -0 0 -15.0709 10.1389 15.0772 11.9771 -9.52867 -1.9928e-05 46.3334 0.312171 23.0072 180 73.7914 180 2.33616 3.3604 0.0685022 -11.1949 19.8843 -5.89349e-05 -41.1907 33.469 26.3021 180 -89.4971 180 -8.18922 0.361699 -0.0259001 3.15689 -6.00587 -20.5379 -1.0997 -2.39981 -5.88074 -0 -0 42.5903 -3.52682e-07 -9.56315 4.05277 -0.682206 1.17319e-06 -60.9987 -10.821 8.0132 -83.7485 -0 -0 66.8076 9.94475e-06 10.1263 -3.25742 -0.581513 -6.26461e-07 -18.7894 
-109.31 71.365 -4.018 -5.36852 85.4513 27.4821 0 -0 0 -15.4644 9.74794 15.3311 12.4244 -9.10901 -9.96873e-06 47.7158 0.266794 22.8275 180 75.0515 180 2.40763 3.48152 0.0732011 -12.1361 19.4555 -5.31939e-05 -41.2478 31.6612 25.2188 -3.44692e-05 -89.5396 3.47197e-05 -7.58996 0.727007 -0.0481999 2.85864 -5.66742 -20.3944 -1.08891 -2.65164 -7.34368 -0 -0 45.9042 3.90687e-06 -10.9219 3.47999 -0.671101 -3.75184e-06 -56.755 -10.8816 8.11604 -83.0856 -0 -0 67.6462 7.75673e-06 10.3017 -4.56917 -0.829584 2.62415e-07 -18.8495 
-108.03 71.453 -4.0454 -4.96667 85.4431 27.8933 0 -0 0 -15.8124 9.29714 15.5871 12.8361 -8.68013 2.72822e-05 49.2196 0.225839 22.6072 180 76.4994 180 2.50554 3.60514 0.0788985 -13.0491 18.9954 -7.40127e-05 -41.3643 29.7717 24.0684 0 -88.6036 0 -6.99543 1.1314 -0.0691991 2.54191 -5.27112 -20.1925 -1.04026 -2.9781 -8.99782 -0 -0 49.2784 7.71369e-06 -12.3549 2.59254 -0.567714 3.08939e-06 -52.3024 -10.8787 8.17971 -82.3917 -0 -0 68.3552 5.55579e-06 10.4983 -5.78203 -1.06951 5.7274e-06 -19.2697 
-106.79 71.572 -4.0728 -4.74964 85.4413 28.1478 0 -0 0 -16.1131 8.80511 15.8467 13.2003 -8.26051 -2.20359e-05 50.8463 0.188557 22.326 180 78.1339 180 2.61639 3.72471 0.0851 -13.8798 18.538 2.82241e-05 -41.5723 27.7455 22.8932 -1.32644e-05 -87.4846 1.34207e-05 -6.43766 1.56576 -0.0880971 2.21495 -4.82881 -19.9476 -0.951295 -3.36317 -10.8299 -0 -0 52.6637 4.36925e-06 -13.7888 1.44529 -0.354695 -4.97098e-06 -47.7668 -10.8186 8.21226 -81.6819 -0 -0 68.9384 -9.22546e-06 10.7111 -6.87758 -1.29747 4.3625e-06 -19.9663 
-105.59 71.721 -4.098 -4.84444 85.4564 28.1105 0 -0 0 -16.3537 8.28739 16.1084 13.5069 -7.84851 -2.79012e-06 52.5915 0.138224 21.9639 180 79.9315 180 2.71192 3.82332 0.0905019 -14.6304 18.069 -2.89112e-05 -41.8636 25.6157 21.6914 -8.43503e-06 -86.3254 8.68351e-06 -5.92723 2.02006 -0.104596 1.88279 -4.34647 -19.6708 -0.813794 -3.78215 -12.8289 -0 -0 56.0121 7.62556e-07 -15.1519 0.102 -0.0276 -4.24035e-08 -43.2143 -10.7063 8.23095 -80.9617 -0 -0 69.401 -6.96375e-06 10.9318 -7.85117 -1.51131 3.77728e-06 -20.8378 
-104.42 71.896 -4.1192 -5.29848 85.4531 27.7459 0 -0 0 -16.5294 7.76035 16.3717 13.7534 -7.44695 -1.016e-05 54.436 0.067093 21.5043 180 81.8696 180 2.75519 3.88991 0.093599 -15.2876 17.5899 3.90065e-05 -42.2396 23.3933 20.4761 -6.28008e-06 -85.0778 6.5287e-06 -5.47394 2.48298 -0.118697 1.55032 -3.83253 -19.3695 -0.622662 -4.20942 -14.9835 -0 -0 59.2844 -6.98004e-06 -16.3817 -1.37054 0.402899 -5.71182e-06 -38.7234 -10.554 8.25365 -80.2412 -0 -0 69.7543 -2.39658e-06 11.1545 -8.7141 -1.7111 -8.81748e-06 -21.7781 
-103.29 72.096 -4.1351 -6.18942 85.4637 26.9503 0 -0 0 -16.6364 7.23872 16.6352 13.9411 -7.05515 9.86485e-06 56.3535 -0.0318713 20.9366 180 83.9101 180 2.70418 3.91849 0.0924984 -15.8506 17.0915 -5.02927e-06 -42.6923 21.1126 19.2475 -0 -83.8072 0 -5.08341 2.9445 -0.130697 1.22162 -3.29667 -19.0471 -0.374204 -4.62051 -17.2761 -0 -0 62.4431 -5.21953e-06 -17.423 -2.90615 0.911594 3.65559e-06 -34.3688 -10.3748 8.29883 -79.5198 -0 -0 70.0045 6.12838e-07 11.3742 -9.4872 -1.89908 6.18279e-06 -22.6867 
